<svg width="256" height="256" viewBox="0 0 256 256" fill="none" xmlns="http://www.w3.org/2000/svg">
  <rect width="256" height="256" rx="48" fill="#102119"/>
  <circle cx="128" cy="134" r="76" fill="#1f3b28"/>
  <path d="M128 40C107 74 75 85 48 98C78 110 104 128 112 164C93 150 74 151 56 160C85 180 103 194 128 220C153 194 171 180 200 160C182 151 163 150 144 164C152 128 178 110 208 98C181 85 149 74 128 40Z" fill="#82d17b"/>
  <path d="M128 61C116 96 112 135 128 198C144 135 140 96 128 61Z" fill="#f0c968"/>
  <circle cx="128" cy="124" r="18" fill="#43d6c2"/>
  <circle cx="128" cy="124" r="8" fill="#fff2a8"/>
</svg>

